# xmcd
#
# Track frame offsets:
#	150
#	20265
#	42752
#	65045
#	87820
#	110372
#	133232
#	155120
#	176250
#	196317
#	215595
#	235970
#	257635
#	281212
#	305867
#
# Disc length: 4367 seconds
#
# Revision: 1
# Processed by: cddbd v1.5.1PL0 Copyright (c) Steve Scherf et al.
# Submitted via: CDex 1.50Beta5
#
DISCID=dd110d0f
DTITLE=KATSUMI - BEST 1990〜1996,THE
DYEAR=1997
DGENRE=
TTITLE0=SHINING IN THE NIGHT
TTITLE1=危険な女神
TTITLE2=YES、抱きしめて
TTITLE3=Just time girl
TTITLE4=It’s may JAL
TTITLE5=Come On
TTITLE6=君のもとへ
TTITLE7=君を離さない
TTITLE8=笑顔がいいね
TTITLE9=もう二度と戻れない
TTITLE10=情熱
TTITLE11=何も言わずに
TTITLE12=新しい風
TTITLE13=Higher Love
TTITLE14=DREAMIN’
EXTD=
EXTT0=
EXTT1=
EXTT2=
EXTT3=
EXTT4=
EXTT5=
EXTT6=
EXTT7=
EXTT8=
EXTT9=
EXTT10=
EXTT11=
EXTT12=
EXTT13=
EXTT14=
PLAYORDER=
